<svg width="62" height="86" viewBox="0 0 62 86" fill="none" xmlns="http://www.w3.org/2000/svg">
<g clip-path="url(#clip0_2037_17331)">
<path d="M33.0444 46.2606C34.2687 47.1121 35.1041 48.1582 35.5701 49.4033H19.5703H19.0703V49.9033V51.9952V52.4952H19.5703H35.9588C35.8169 54.5873 34.9912 56.1763 33.5036 57.3171L33.8079 57.7139L33.5036 57.3171C31.8447 58.5894 30.0138 59.2194 27.9966 59.2194H21.6769H21.1769V59.7194V62.4549V62.657L21.3173 62.8023L34.0661 75.9977L34.2135 76.1503H34.4257H37.3547H38.5321L37.7144 75.303L25.1756 62.3113H27.9966C30.9244 62.3113 33.5061 61.3755 35.7203 59.5082L35.398 59.126L35.7203 59.5082C37.8421 57.7187 38.9621 55.3671 39.0867 52.4952H42.7426H43.2426V51.9952V49.9033V49.4033H42.7426H38.8465C38.6119 48.3272 38.1454 47.3163 37.454 46.3732C37.0121 45.7704 36.5227 45.2359 35.9857 44.7711H42.7426H43.2426V44.2711V42.1792V41.6792H42.7426H19.5703H19.0703V42.1792V44.2711V44.7711H19.5703H27.9966C29.9477 44.7711 31.6234 45.2724 33.0444 46.2606ZM33.0444 46.2606L33.3299 45.8501M33.0444 46.2606L33.3299 45.8501M33.3299 45.8501C31.8161 44.7975 30.0384 44.2711 27.9966 44.2711H20.0703L36.1012 49.4033C35.6115 47.9788 34.6877 46.7944 33.3299 45.8501Z" fill="#D46F88" stroke="#D46F88"/>
<circle cx="30.9517" cy="55.0483" r="28.4517" stroke="#D46F88" stroke-width="5"/>
</g>
<g clip-path="url(#clip1_2037_17331)">
<path d="M44.3556 16.1957L44.1738 16.3894L44.3556 16.1957C47.7581 19.3884 49.7414 23.2698 49.7414 26.8605C49.7414 33.1207 44.6546 38.2139 38.4008 38.2139C32.1469 38.2139 27.0601 33.1207 27.0601 26.8605V11.5704C26.7704 11.1311 26.3134 10.4191 25.8521 9.62306C24.3729 7.07006 24.1737 5.93131 24.1737 5.25936C24.1737 2.70386 26.2499 0.624683 28.8033 0.624683C31.3567 0.624683 33.433 2.70386 33.433 5.25936C33.433 5.95868 33.2347 7.13281 31.7506 9.66792C31.2924 10.4507 30.8382 11.1463 30.5466 11.58V26.8605C30.5466 31.1966 34.0705 34.7241 38.4008 34.7241C42.731 34.7241 46.255 31.1966 46.255 26.8605C46.255 25.4416 45.7892 23.9029 44.9066 22.3722V22.9593C44.9066 23.9227 44.1265 24.7042 43.1634 24.7042C42.2003 24.7042 41.4202 23.9227 41.4202 22.9593V17.4687C41.4202 16.7734 41.8326 16.1443 42.4702 15.8677C43.1079 15.5909 43.8488 15.7201 44.3556 16.1957ZM27.6601 5.24885C27.6643 5.28665 27.7391 5.90764 28.8146 7.77965C29.9054 5.89303 29.9454 5.27044 29.9465 5.25619C29.9448 4.62628 29.4321 4.11447 28.8033 4.11447C28.1763 4.11447 27.6649 4.62342 27.6601 5.24885Z" fill="#D46F88" stroke="#D46F88" stroke-width="0.6"/>
<path d="M30.9608 29C29.1703 28.9999 23.4613 29.5 20.4603 31.5L27.7051 35.6389L31.9414 37.1015L35.1855 32.6467C35.9609 31.5 37.644 30.6648 36.9609 30C36.143 29.2039 32.2128 29.0001 30.9608 29Z" fill="#FFEEF2"/>
</g>
<defs>
<clipPath id="clip0_2037_17331">
<rect width="61.9035" height="61.9035" fill="white" transform="translate(0 24.0966)"/>
</clipPath>
<clipPath id="clip1_2037_17331">
<rect width="33.2903" height="38.8387" fill="white" transform="matrix(-1 0 0 1 54.0664 0)"/>
</clipPath>
</defs>
</svg>
