<?xml version="1.0" encoding="utf-8"?>
<!-- Generator: Adobe Illustrator 28.1.0, SVG Export Plug-In . SVG Version: 6.00 Build 0)  -->
<svg version="1.1" id="Layer_1" xmlns="http://www.w3.org/2000/svg" xmlns:xlink="http://www.w3.org/1999/xlink" x="0px" y="0px"
	 viewBox="0 0 62 86" style="enable-background:new 0 0 62 86;" xml:space="preserve">
<style type="text/css">
	.st0{clip-path:url(#SVGID_00000077304981478995033550000016410908829104659587_);}
	.st1{fill:#D46F88;stroke:#D46F88;}
	.st2{fill:none;stroke:#D46F88;stroke-width:5;}
	.st3{fill:none;}
	.st4{fill:#D46F88;stroke:#D46F88;stroke-width:0.6;}
</style>
<g>
	<defs>
		<rect id="SVGID_1_" y="24.1" width="61.9" height="61.9"/>
	</defs>
	<clipPath id="SVGID_00000018220550386005747330000012538817900974173064_">
		<use xlink:href="#SVGID_1_"  style="overflow:visible;"/>
	</clipPath>
	<g style="clip-path:url(#SVGID_00000018220550386005747330000012538817900974173064_);">
		<path class="st1" d="M33,46.3c1.2,0.9,2.1,1.9,2.5,3.1h-16h-0.5v0.5V52v0.5h0.5H36c-0.1,2.1-1,3.7-2.5,4.8l0.3,0.4l-0.3-0.4
			c-1.7,1.3-3.5,1.9-5.5,1.9h-6.3h-0.5v0.5v2.7v0.2l0.1,0.1L34.1,76l0.1,0.2h0.2h2.9h1.2l-0.8-0.8l-12.5-13H28
			c2.9,0,5.5-0.9,7.7-2.8l-0.3-0.4l0.3,0.4c2.1-1.8,3.2-4.1,3.4-7h3.7h0.5V52v-2.1v-0.5h-0.5h-3.9c-0.2-1.1-0.7-2.1-1.4-3
			c-0.4-0.6-0.9-1.1-1.5-1.6h6.8h0.5v-0.5v-2.1v-0.5h-0.5H19.6h-0.5v0.5v2.1v0.5h0.5H28C29.9,44.8,31.6,45.3,33,46.3z"/>
		<line class="st1" x1="33" y1="46.3" x2="33.3" y2="45.9"/>
		<line class="st1" x1="33" y1="46.3" x2="33.3" y2="45.9"/>
		<circle class="st2" cx="31" cy="55" r="28.5"/>
	</g>
</g>
<rect x="20.8" class="st3" width="33.3" height="38.8"/>
<g>
	<path class="st4" d="M27.1,11.6v15.3c0,0.8,3.5,0.7,3.5,0V11.6c0.3-0.4,0.7-1.1,1.2-1.9c1.5-2.5,1.7-3.7,1.7-4.4
		c0-2.6-2.1-4.6-4.6-4.6s-4.6,2.1-4.6,4.6c0,0.7,0.2,1.8,1.7,4.4C26.3,10.4,26.8,11.1,27.1,11.6z M28.8,4.1c0.6,0,1.1,0.5,1.1,1.1
		c0,0,0,0.6-1.1,2.5c-1.1-1.9-1.2-2.5-1.2-2.5C27.7,4.6,28.2,4.1,28.8,4.1z"/>
	<path class="st4" d="M44.4,16.2c-0.5-0.5-1.2-0.6-1.9-0.3c-0.6,0.3-1,0.9-1,1.6V23c0,1,0.8,1.7,1.7,1.7c1,0,1.7-0.8,1.7-1.7v-0.6
		c0.9,1.5,1.3,3.1,1.3,4.5c0,4.3-3.5,7.9-7.9,7.9c-1.4,0-2.8-0.4-3.9-1.1l-2.1,2.8c1.7,1.1,3.8,1.7,6,1.7c6.3,0,11.3-5.1,11.3-11.4
		C49.7,23.3,47.8,19.4,44.4,16.2z"/>
</g>
</svg>
