<svg width="156" height="47" viewBox="0 0 156 47" fill="none" xmlns="http://www.w3.org/2000/svg">
<rect x="0.5" y="0.5" width="155" height="46" rx="5.5" fill="black" stroke="#A6A6A6"/>
<path d="M37.3868 23.8527C37.3995 22.872 37.66 21.9104 38.1441 21.0574C38.6282 20.2044 39.3203 19.4877 40.1558 18.9741C39.625 18.216 38.9248 17.5922 38.1107 17.1521C37.2966 16.712 36.3911 16.4677 35.4662 16.4388C33.4931 16.2317 31.5802 17.6195 30.5748 17.6195C29.5499 17.6195 28.0018 16.4594 26.3348 16.4937C25.2565 16.5285 24.2057 16.842 23.2846 17.4038C22.3636 17.9655 21.6037 18.7562 21.0791 19.6989C18.8067 23.6333 20.5017 29.4155 22.6785 32.5958C23.7676 34.1531 25.0405 35.8926 26.706 35.8309C28.3358 35.7633 28.9445 34.7917 30.9118 34.7917C32.8608 34.7917 33.4319 35.8309 35.1312 35.7917C36.8801 35.7633 37.9819 34.2275 39.0328 32.6555C39.8153 31.5458 40.4175 30.3195 40.8169 29.0218C39.8009 28.592 38.9339 27.8727 38.3239 26.9535C37.7139 26.0343 37.388 24.9559 37.3868 23.8527Z" fill="white"/>
<path d="M34.178 14.3473C35.1315 13.2026 35.6013 11.7313 35.4875 10.2458C34.0307 10.3989 32.6851 11.0951 31.7186 12.1959C31.2461 12.7336 30.8842 13.3593 30.6536 14.037C30.4231 14.7147 30.3283 15.4312 30.3748 16.1455C31.1034 16.153 31.8243 15.9951 32.4831 15.6836C33.1419 15.3721 33.7214 14.9152 34.178 14.3473Z" fill="white"/>
<path d="M57.9875 31.8885H52.4258L51.0901 35.8324H48.7344L54.0024 21.2412H56.4499L61.7179 35.8324H59.322L57.9875 31.8885ZM53.0018 30.0687H57.4104L55.2371 23.6681H55.1763L53.0018 30.0687Z" fill="white"/>
<path d="M73.095 30.514C73.095 33.8198 71.3256 35.9437 68.6555 35.9437C67.9791 35.9791 67.3064 35.8233 66.7145 35.4942C66.1225 35.165 65.6352 34.6758 65.3084 34.0825H65.2578V39.3517H63.0742V25.1943H65.1879V26.9637H65.228C65.5699 26.3733 66.0654 25.8866 66.6619 25.5555C67.2584 25.2243 67.9335 25.061 68.6153 25.083C71.3153 25.083 73.095 27.2173 73.095 30.514ZM70.8506 30.514C70.8506 28.3602 69.7375 26.9442 68.0393 26.9442C66.3709 26.9442 65.2487 28.39 65.2487 30.514C65.2487 32.6574 66.3709 34.0929 68.0393 34.0929C69.7376 34.0929 70.8506 32.6873 70.8506 30.514Z" fill="white"/>
<path d="M84.8021 30.5139C84.8021 33.8198 83.0327 35.9437 80.3625 35.9437C79.6861 35.9791 79.0135 35.8233 78.4215 35.4941C77.8295 35.165 77.3422 34.6758 77.0154 34.0825H76.9649V39.3517H74.7812V25.1943H76.8949V26.9637H76.935C77.2769 26.3733 77.7724 25.8866 78.3689 25.5555C78.9654 25.2243 79.6405 25.061 80.3223 25.083C83.0223 25.083 84.8021 27.2173 84.8021 30.5139ZM82.5576 30.5139C82.5576 28.3602 81.4446 26.9442 79.7463 26.9442C78.0779 26.9442 76.9557 28.39 76.9557 30.5139C76.9557 32.6574 78.0779 34.0929 79.7463 34.0929C81.4446 34.0929 82.5576 32.6872 82.5576 30.5139Z" fill="white"/>
<path d="M92.5439 31.767C92.7057 33.214 94.1113 34.164 96.0322 34.164C97.8727 34.164 99.1969 33.2139 99.1969 31.9093C99.1969 30.7767 98.3982 30.0986 96.5072 29.6338L94.6162 29.1783C91.9369 28.5311 90.693 27.2781 90.693 25.2448C90.693 22.7273 92.887 20.998 96.0023 20.998C99.0855 20.998 101.199 22.7273 101.27 25.2448H99.066C98.9341 23.7887 97.7304 22.9097 95.9713 22.9097C94.2123 22.9097 93.0086 23.799 93.0086 25.0933C93.0086 26.1249 93.7774 26.7319 95.6581 27.1966L97.2656 27.5913C100.259 28.2993 101.503 29.5019 101.503 31.6361C101.503 34.3659 99.3288 36.0756 95.8703 36.0756C92.6345 36.0756 90.4497 34.4061 90.3086 31.7669L92.5439 31.767Z" fill="white"/>
<path d="M106.213 22.6768V25.1943H108.236V26.9235H106.213V32.7882C106.213 33.6993 106.618 34.1238 107.508 34.1238C107.748 34.1196 107.988 34.1028 108.226 34.0733V35.7922C107.826 35.8669 107.42 35.9007 107.013 35.8932C104.859 35.8932 104.019 35.0842 104.019 33.0211V26.9235H102.473V25.1943H104.019V22.6768H106.213Z" fill="white"/>
<path d="M109.41 30.5139C109.41 27.1668 111.381 25.0635 114.456 25.0635C117.54 25.0635 119.502 27.1667 119.502 30.5139C119.502 33.8702 117.55 35.9644 114.456 35.9644C111.362 35.9644 109.41 33.8702 109.41 30.5139ZM117.277 30.5139C117.277 28.2178 116.225 26.8627 114.456 26.8627C112.686 26.8627 111.635 28.2282 111.635 30.5139C111.635 32.8192 112.686 34.164 114.456 34.164C116.225 34.164 117.277 32.8192 117.277 30.5139Z" fill="white"/>
<path d="M121.301 25.1945H123.383V27.0051H123.434C123.575 26.4396 123.906 25.9399 124.372 25.5899C124.838 25.2398 125.41 25.0609 125.993 25.0831C126.244 25.0823 126.495 25.1096 126.741 25.1646V27.2071C126.423 27.11 126.092 27.0655 125.76 27.0751C125.443 27.0623 125.126 27.1182 124.833 27.2391C124.539 27.36 124.275 27.543 124.059 27.7755C123.843 28.008 123.68 28.2846 123.58 28.5862C123.481 28.8877 123.448 29.2072 123.484 29.5227V35.8326H121.301L121.301 25.1945Z" fill="white"/>
<path d="M136.807 32.7079C136.513 34.639 134.633 35.9644 132.226 35.9644C129.132 35.9644 127.211 33.8909 127.211 30.5644C127.211 27.2276 129.142 25.0635 132.135 25.0635C135.078 25.0635 136.929 27.0853 136.929 30.3108V31.059H129.415V31.1909C129.381 31.5824 129.43 31.9768 129.559 32.3479C129.688 32.7191 129.895 33.0584 130.166 33.3434C130.437 33.6284 130.765 33.8525 131.129 34.0009C131.493 34.1493 131.884 34.2186 132.277 34.2041C132.793 34.2525 133.311 34.133 133.753 33.8634C134.196 33.5938 134.54 33.1885 134.734 32.7078L136.807 32.7079ZM129.426 29.5328H134.744C134.764 29.1808 134.71 28.8285 134.587 28.4981C134.464 28.1677 134.274 27.8663 134.029 27.6127C133.784 27.3592 133.489 27.1591 133.163 27.0249C132.837 26.8907 132.487 26.8253 132.135 26.8329C131.779 26.8307 131.427 26.8991 131.098 27.0339C130.769 27.1687 130.469 27.3674 130.218 27.6184C129.966 27.8694 129.766 28.1678 129.63 28.4964C129.494 28.825 129.425 29.1772 129.426 29.5328Z" fill="white"/>
<path d="M52.7317 10.2589C53.1895 10.2261 53.6488 10.2952 54.0767 10.4614C54.5045 10.6276 54.8901 10.8867 55.2057 11.2199C55.5213 11.5532 55.759 11.9523 55.9016 12.3886C56.0443 12.8248 56.0883 13.2873 56.0306 13.7426C56.0306 15.9825 54.82 17.27 52.7317 17.27H50.1992V10.2589H52.7317ZM51.2882 16.2785H52.61C52.9372 16.298 53.2645 16.2444 53.5683 16.1215C53.8721 15.9985 54.1446 15.8094 54.3661 15.5679C54.5876 15.3263 54.7524 15.0385 54.8486 14.7252C54.9448 14.4119 54.9699 14.0811 54.9222 13.7569C54.9665 13.434 54.9388 13.1052 54.8411 12.7943C54.7435 12.4833 54.5782 12.1978 54.3572 11.9581C54.1363 11.7185 53.865 11.5307 53.563 11.4083C53.2609 11.2858 52.9355 11.2316 52.61 11.2497H51.2882V16.2785Z" fill="white"/>
<path d="M57.2618 14.6222C57.2285 14.2745 57.2683 13.9237 57.3786 13.5922C57.4888 13.2608 57.6672 12.9561 57.9021 12.6976C58.137 12.4391 58.4234 12.2326 58.7428 12.0913C59.0622 11.95 59.4077 11.877 59.757 11.877C60.1062 11.877 60.4517 11.95 60.7711 12.0913C61.0905 12.2326 61.3769 12.4391 61.6118 12.6976C61.8468 12.9561 62.0251 13.2608 62.1353 13.5922C62.2456 13.9237 62.2854 14.2745 62.2521 14.6222C62.286 14.9703 62.2467 15.3216 62.1367 15.6535C62.0268 15.9855 61.8486 16.2908 61.6136 16.5498C61.3786 16.8088 61.092 17.0157 60.7722 17.1573C60.4525 17.299 60.1067 17.3721 59.757 17.3721C59.4072 17.3721 59.0614 17.299 58.7417 17.1573C58.4219 17.0157 58.1353 16.8088 57.9004 16.5498C57.6654 16.2908 57.4872 15.9855 57.3772 15.6535C57.2672 15.3216 57.2279 14.9703 57.2618 14.6222ZM61.1781 14.6222C61.1781 13.4753 60.6629 12.8046 59.7587 12.8046C58.851 12.8046 58.3405 13.4753 58.3405 14.6222C58.3405 15.7783 58.8511 16.4438 59.7587 16.4438C60.6629 16.4438 61.1781 15.7737 61.1781 14.6222Z" fill="white"/>
<path d="M68.8835 17.2695H67.8003L66.7068 13.3727H66.6242L65.5352 17.2695H64.4623L63.0039 11.9785H64.063L65.0108 16.0158H65.0889L66.1766 11.9785H67.1784L68.2662 16.0158H68.3488L69.292 11.9785H70.3362L68.8835 17.2695Z" fill="white"/>
<path d="M71.5625 11.9784H72.5677V12.8189H72.6457C72.7781 12.5171 73.0013 12.264 73.2844 12.095C73.5674 11.9261 73.8961 11.8496 74.2246 11.8763C74.4821 11.8569 74.7406 11.8958 74.981 11.9899C75.2214 12.084 75.4375 12.231 75.6134 12.42C75.7893 12.609 75.9204 12.8351 75.997 13.0816C76.0736 13.3282 76.0937 13.5888 76.056 13.8442V17.2693H75.0118V14.1064C75.0118 13.2561 74.6423 12.8333 73.87 12.8333C73.6953 12.8252 73.5208 12.8549 73.3586 12.9205C73.1963 12.9861 73.0502 13.086 72.9302 13.2134C72.8102 13.3407 72.7192 13.4925 72.6633 13.6583C72.6075 13.8242 72.5882 14.0001 72.6067 14.1741V17.2694H71.5625L71.5625 11.9784Z" fill="white"/>
<path d="M77.7188 9.91309H78.7629V17.2695H77.7188V9.91309Z" fill="white"/>
<path d="M80.2149 14.6213C80.1817 14.2736 80.2215 13.9228 80.3318 13.5913C80.442 13.2599 80.6204 12.9551 80.8553 12.6966C81.0903 12.4382 81.3767 12.2316 81.6961 12.0903C82.0156 11.949 82.361 11.876 82.7103 11.876C83.0597 11.876 83.4051 11.949 83.7246 12.0903C84.044 12.2316 84.3304 12.4382 84.5653 12.6966C84.8003 12.9551 84.9786 13.2599 85.0889 13.5913C85.1992 13.9228 85.239 14.2736 85.2058 14.6213C85.2396 14.9694 85.2003 15.3207 85.0903 15.6527C84.9803 15.9846 84.802 16.2899 84.567 16.5489C84.332 16.8079 84.0454 17.0148 83.7257 17.1564C83.4059 17.2981 83.0601 17.3712 82.7103 17.3712C82.3606 17.3712 82.0148 17.2981 81.695 17.1564C81.3753 17.0148 81.0887 16.8079 80.8536 16.5489C80.6186 16.2899 80.4404 15.9846 80.3304 15.6527C80.2204 15.3207 80.181 14.9694 80.2149 14.6213ZM84.1312 14.6213C84.1312 13.4744 83.616 12.8037 82.7118 12.8037C81.8041 12.8037 81.2936 13.4744 81.2936 14.6213C81.2936 15.7774 81.8042 16.4429 82.7118 16.4429C83.616 16.4429 84.1312 15.7728 84.1312 14.6213Z" fill="white"/>
<path d="M86.3047 15.7727C86.3047 14.8204 87.0138 14.2713 88.2726 14.1933L89.7058 14.1107V13.654C89.7058 13.0951 89.3363 12.7796 88.6226 12.7796C88.0397 12.7796 87.6358 12.9936 87.5198 13.3677H86.5089C86.6156 12.4589 87.4705 11.876 88.6708 11.876C89.9972 11.876 90.7454 12.5363 90.7454 13.654V17.269H89.7402V16.5255H89.6576C89.4899 16.7922 89.2544 17.0096 88.9752 17.1556C88.696 17.3015 88.3831 17.3708 88.0683 17.3562C87.8462 17.3793 87.6217 17.3556 87.4093 17.2866C87.1969 17.2177 87.0014 17.105 86.8352 16.9558C86.669 16.8066 86.536 16.6242 86.4446 16.4205C86.3532 16.2167 86.3056 15.9961 86.3047 15.7727ZM89.7058 15.3206V14.8783L88.4137 14.9609C87.6851 15.0097 87.3546 15.2575 87.3546 15.724C87.3546 16.2002 87.7677 16.4773 88.3357 16.4773C88.5022 16.4941 88.6703 16.4773 88.8301 16.4279C88.9899 16.3784 89.1381 16.2973 89.2659 16.1894C89.3938 16.0815 89.4986 15.949 89.5741 15.7997C89.6497 15.6505 89.6945 15.4875 89.7058 15.3206Z" fill="white"/>
<path d="M92.1172 14.6217C92.1172 12.9499 92.9766 11.8908 94.3134 11.8908C94.6441 11.8755 94.9723 11.9547 95.2596 12.1191C95.5469 12.2835 95.7815 12.5262 95.9359 12.819H96.014V9.91309H97.0582V17.2695H96.0576V16.4335H95.975C95.8086 16.7243 95.5658 16.9641 95.2729 17.1268C94.9801 17.2895 94.6482 17.369 94.3134 17.3567C92.9675 17.3567 92.1172 16.2976 92.1172 14.6217ZM93.1958 14.6217C93.1958 15.7439 93.7248 16.4192 94.6095 16.4192C95.4896 16.4192 96.0335 15.7342 96.0335 14.6263C96.0335 13.5236 95.4839 12.8288 94.6095 12.8288C93.7305 12.8288 93.1958 13.5087 93.1958 14.6217Z" fill="white"/>
<path d="M101.379 14.6222C101.346 14.2745 101.386 13.9237 101.496 13.5922C101.606 13.2608 101.784 12.9561 102.019 12.6976C102.254 12.4391 102.541 12.2326 102.86 12.0913C103.179 11.95 103.525 11.877 103.874 11.877C104.223 11.877 104.569 11.95 104.888 12.0913C105.208 12.2326 105.494 12.4391 105.729 12.6976C105.964 12.9561 106.142 13.2608 106.253 13.5922C106.363 13.9237 106.403 14.2745 106.369 14.6222C106.403 14.9703 106.364 15.3216 106.254 15.6535C106.144 15.9855 105.966 16.2908 105.731 16.5498C105.496 16.8088 105.209 17.0157 104.889 17.1573C104.57 17.299 104.224 17.3721 103.874 17.3721C103.524 17.3721 103.179 17.299 102.859 17.1573C102.539 17.0157 102.253 16.8088 102.018 16.5498C101.783 16.2908 101.604 15.9855 101.494 15.6535C101.384 15.3216 101.345 14.9703 101.379 14.6222ZM105.295 14.6222C105.295 13.4753 104.78 12.8046 103.876 12.8046C102.968 12.8046 102.458 13.4753 102.458 14.6222C102.458 15.7783 102.968 16.4438 103.876 16.4438C104.78 16.4438 105.295 15.7737 105.295 14.6222Z" fill="white"/>
<path d="M107.773 11.9784H108.779V12.8189H108.857C108.989 12.5171 109.212 12.264 109.495 12.095C109.778 11.9261 110.107 11.8496 110.436 11.8763C110.693 11.8569 110.951 11.8958 111.192 11.9899C111.432 12.084 111.648 12.231 111.824 12.42C112 12.609 112.131 12.8351 112.208 13.0816C112.285 13.3282 112.305 13.5888 112.267 13.8442V17.2693H111.223V14.1064C111.223 13.2561 110.853 12.8333 110.081 12.8333C109.906 12.8252 109.732 12.8549 109.569 12.9205C109.407 12.9861 109.261 13.086 109.141 13.2134C109.021 13.3407 108.93 13.4925 108.874 13.6583C108.818 13.8242 108.799 14.0001 108.818 14.1741V17.2694H107.773V11.9784Z" fill="white"/>
<path d="M118.167 10.6611V12.0025H119.313V12.882H118.167V15.6027C118.167 16.1569 118.395 16.3996 118.915 16.3996C119.048 16.3992 119.181 16.3911 119.313 16.3755V17.2453C119.125 17.2788 118.935 17.2967 118.745 17.2986C117.584 17.2986 117.121 16.8901 117.121 15.87V12.882H116.281V12.0025H117.121V10.6611H118.167Z" fill="white"/>
<path d="M120.738 9.91309H121.773V12.8288H121.856C121.995 12.5241 122.224 12.2696 122.513 12.1C122.801 11.9304 123.135 11.8539 123.469 11.881C123.725 11.8671 123.981 11.9098 124.219 12.0062C124.457 12.1026 124.67 12.2503 124.844 12.4387C125.018 12.6271 125.149 12.8516 125.226 13.0961C125.303 13.3407 125.325 13.5993 125.291 13.8535V17.2695H124.246V14.1111C124.246 13.266 123.852 12.838 123.115 12.838C122.935 12.8232 122.755 12.8479 122.586 12.9102C122.417 12.9726 122.264 13.0711 122.137 13.1988C122.01 13.3266 121.912 13.4806 121.851 13.6499C121.79 13.8193 121.767 14 121.783 14.1793V17.2694H120.738L120.738 9.91309Z" fill="white"/>
<path d="M131.38 15.8405C131.239 16.3241 130.931 16.7424 130.512 17.0222C130.093 17.302 129.589 17.4256 129.088 17.3712C128.739 17.3804 128.393 17.3137 128.073 17.1756C127.752 17.0375 127.466 16.8314 127.234 16.5715C127.001 16.3117 126.828 16.0044 126.726 15.6709C126.624 15.3374 126.596 14.9857 126.644 14.6403C126.597 14.2938 126.626 13.9414 126.727 13.6069C126.829 13.2724 127.001 12.9637 127.233 12.7015C127.464 12.4394 127.749 12.2301 128.068 12.0877C128.387 11.9452 128.734 11.8731 129.083 11.8761C130.555 11.8761 131.443 12.8819 131.443 14.5433V14.9077H127.707V14.9662C127.691 15.1603 127.715 15.3558 127.779 15.54C127.843 15.7241 127.944 15.893 128.077 16.0357C128.209 16.1784 128.37 16.2918 128.549 16.3687C128.728 16.4455 128.922 16.4841 129.116 16.4819C129.366 16.5119 129.619 16.4669 129.843 16.3527C130.068 16.2385 130.253 16.0602 130.375 15.8405L131.38 15.8405ZM127.707 14.1354H130.38C130.393 13.9578 130.369 13.7795 130.309 13.6118C130.249 13.4441 130.155 13.2908 130.032 13.1617C129.909 13.0326 129.761 12.9306 129.597 12.8623C129.432 12.7939 129.255 12.7607 129.077 12.7648C128.897 12.7625 128.718 12.7964 128.55 12.8645C128.383 12.9326 128.231 13.0335 128.103 13.1612C127.976 13.2889 127.875 13.441 127.807 13.6083C127.739 13.7756 127.705 13.9548 127.707 14.1354Z" fill="white"/>
</svg>
