<svg width="19" height="18" viewBox="0 0 19 18" fill="none" xmlns="http://www.w3.org/2000/svg">
<path d="M13.2286 0C13.2705 0 13.3123 0 13.3566 0C13.4594 1.2694 12.9748 2.21789 12.386 2.90475C11.8082 3.58688 11.017 4.24845 9.73732 4.14807C9.65196 2.89685 10.1373 2.01871 10.7253 1.33342C11.2707 0.69477 12.2706 0.126466 13.2286 0Z" fill="#282828"/>
<path d="M17.1025 13.2125C17.1025 13.2252 17.1025 13.2362 17.1025 13.2481C16.7428 14.3373 16.2299 15.2708 15.6039 16.137C15.0324 16.9235 14.3321 17.9819 13.0817 17.9819C12.0012 17.9819 11.2835 17.2871 10.1761 17.2681C9.00473 17.2492 8.36055 17.8491 7.28954 18C7.16703 18 7.04452 18 6.92438 18C6.13792 17.8862 5.50322 17.2634 5.04083 16.7022C3.67737 15.0439 2.62376 12.9019 2.42773 10.1608C2.42773 9.89202 2.42773 9.62407 2.42773 9.35533C2.51073 7.39354 3.46396 5.79849 4.73099 5.02547C5.39967 4.61445 6.31892 4.2643 7.3425 4.4208C7.78118 4.48878 8.22934 4.63896 8.62217 4.78755C8.99446 4.93062 9.46001 5.18434 9.90106 5.1709C10.1998 5.16221 10.497 5.0065 10.7982 4.89663C11.6803 4.5781 12.545 4.21293 13.6847 4.38445C15.0545 4.59153 16.0267 5.20015 16.6274 6.13916C15.4687 6.87661 14.5526 7.98792 14.7091 9.8857C14.8482 11.6096 15.8505 12.6181 17.1025 13.2125Z" fill="#282828"/>
</svg>
