<svg width="228" height="40" viewBox="0 0 228 40" fill="none" xmlns="http://www.w3.org/2000/svg">
<rect x="0.5" y="0.5" width="227" height="39" rx="19.5" stroke="#282828"/>
<path d="M25.7586 25V15.2H28.9366C30.0846 15.2 31.0273 15.4007 31.7646 15.802C32.5113 16.2033 33.062 16.7727 33.4166 17.51C33.7806 18.238 33.9626 19.106 33.9626 20.114C33.9626 21.1127 33.7806 21.9807 33.4166 22.718C33.062 23.446 32.5113 24.0107 31.7646 24.412C31.0273 24.804 30.0846 25 28.9366 25H25.7586ZM27.2426 23.74H28.8806C29.7673 23.74 30.4673 23.5953 30.9806 23.306C31.5033 23.0167 31.8766 22.6013 32.1006 22.06C32.334 21.5187 32.4506 20.87 32.4506 20.114C32.4506 19.358 32.334 18.7047 32.1006 18.154C31.8766 17.6033 31.5033 17.1833 30.9806 16.894C30.4673 16.5953 29.7673 16.446 28.8806 16.446H27.2426V23.74ZM38.7944 25.168C38.1317 25.168 37.5344 25.0187 37.0024 24.72C36.4797 24.412 36.0644 23.9873 35.7564 23.446C35.4484 22.8953 35.2944 22.256 35.2944 21.528C35.2944 20.8 35.4484 20.1653 35.7564 19.624C36.0737 19.0733 36.4984 18.6487 37.0304 18.35C37.5624 18.042 38.1551 17.888 38.8084 17.888C39.4711 17.888 40.0637 18.042 40.5864 18.35C41.1184 18.6487 41.5384 19.0733 41.8464 19.624C42.1637 20.1653 42.3224 20.8 42.3224 21.528C42.3224 22.256 42.1637 22.8953 41.8464 23.446C41.5384 23.9873 41.1184 24.412 40.5864 24.72C40.0544 25.0187 39.4571 25.168 38.7944 25.168ZM38.7944 23.894C39.1491 23.894 39.4757 23.8053 39.7744 23.628C40.0824 23.4507 40.3297 23.1893 40.5164 22.844C40.7031 22.4893 40.7964 22.0507 40.7964 21.528C40.7964 21.0053 40.7031 20.5713 40.5164 20.226C40.3391 19.8713 40.0964 19.6053 39.7884 19.428C39.4897 19.2507 39.1631 19.162 38.8084 19.162C38.4537 19.162 38.1224 19.2507 37.8144 19.428C37.5157 19.6053 37.2731 19.8713 37.0864 20.226C36.8997 20.5713 36.8064 21.0053 36.8064 21.528C36.8064 22.0507 36.8997 22.4893 37.0864 22.844C37.2731 23.1893 37.5157 23.4507 37.8144 23.628C38.1131 23.8053 38.4397 23.894 38.7944 23.894ZM45.0535 25L43.0095 18.056H44.4935L45.8375 23.292L47.3495 18.056H49.0015L50.5135 23.292L51.8575 18.056H53.3415L51.2975 25H49.7715L48.1755 19.54L46.5795 25H45.0535ZM54.564 25V18.056H55.88L55.992 19.274C56.2066 18.8447 56.5193 18.5087 56.93 18.266C57.35 18.014 57.8306 17.888 58.372 17.888C59.212 17.888 59.87 18.1493 60.346 18.672C60.8313 19.1947 61.074 19.974 61.074 21.01V25H59.604V21.164C59.604 19.82 59.0533 19.148 57.952 19.148C57.4013 19.148 56.944 19.344 56.58 19.736C56.2253 20.128 56.048 20.688 56.048 21.416V25H54.564ZM62.8218 25V14.92H64.3058V25H62.8218ZM69.4331 25.168C68.7704 25.168 68.1731 25.0187 67.6411 24.72C67.1184 24.412 66.7031 23.9873 66.3951 23.446C66.0871 22.8953 65.9331 22.256 65.9331 21.528C65.9331 20.8 66.0871 20.1653 66.3951 19.624C66.7124 19.0733 67.1371 18.6487 67.6691 18.35C68.2011 18.042 68.7937 17.888 69.4471 17.888C70.1097 17.888 70.7024 18.042 71.2251 18.35C71.7571 18.6487 72.1771 19.0733 72.4851 19.624C72.8024 20.1653 72.9611 20.8 72.9611 21.528C72.9611 22.256 72.8024 22.8953 72.4851 23.446C72.1771 23.9873 71.7571 24.412 71.2251 24.72C70.6931 25.0187 70.0957 25.168 69.4331 25.168ZM69.4331 23.894C69.7877 23.894 70.1144 23.8053 70.4131 23.628C70.7211 23.4507 70.9684 23.1893 71.1551 22.844C71.3417 22.4893 71.4351 22.0507 71.4351 21.528C71.4351 21.0053 71.3417 20.5713 71.1551 20.226C70.9777 19.8713 70.7351 19.6053 70.4271 19.428C70.1284 19.2507 69.8017 19.162 69.4471 19.162C69.0924 19.162 68.7611 19.2507 68.4531 19.428C68.1544 19.6053 67.9117 19.8713 67.7251 20.226C67.5384 20.5713 67.4451 21.0053 67.4451 21.528C67.4451 22.0507 67.5384 22.4893 67.7251 22.844C67.9117 23.1893 68.1544 23.4507 68.4531 23.628C68.7517 23.8053 69.0784 23.894 69.4331 23.894ZM76.9179 25.168C76.3299 25.168 75.8446 25.07 75.4619 24.874C75.0793 24.678 74.7946 24.4213 74.6079 24.104C74.4213 23.7773 74.3279 23.4227 74.3279 23.04C74.3279 22.368 74.5893 21.836 75.1119 21.444C75.6346 21.052 76.3813 20.856 77.3519 20.856H79.1719V20.73C79.1719 20.1887 79.0226 19.7827 78.7239 19.512C78.4346 19.2413 78.0566 19.106 77.5899 19.106C77.1793 19.106 76.8199 19.2087 76.5119 19.414C76.2133 19.61 76.0313 19.904 75.9659 20.296H74.4819C74.5286 19.792 74.6966 19.3627 74.9859 19.008C75.2846 18.644 75.6579 18.3687 76.1059 18.182C76.5633 17.986 77.0626 17.888 77.6039 17.888C78.5746 17.888 79.3259 18.1447 79.8579 18.658C80.3899 19.162 80.6559 19.8527 80.6559 20.73V25H79.3679L79.2419 23.81C79.0459 24.1927 78.7613 24.5147 78.3879 24.776C78.0146 25.0373 77.5246 25.168 76.9179 25.168ZM77.2119 23.964C77.6133 23.964 77.9493 23.8707 78.2199 23.684C78.4999 23.488 78.7146 23.2313 78.8639 22.914C79.0226 22.5967 79.1206 22.2467 79.1579 21.864H77.5059C76.9179 21.864 76.4979 21.9667 76.2459 22.172C76.0033 22.3773 75.8819 22.634 75.8819 22.942C75.8819 23.2593 75.9986 23.5113 76.2319 23.698C76.4746 23.8753 76.8013 23.964 77.2119 23.964ZM85.5502 25.168C84.8782 25.168 84.2856 25.0093 83.7722 24.692C83.2589 24.3747 82.8576 23.9407 82.5682 23.39C82.2789 22.8393 82.1342 22.214 82.1342 21.514C82.1342 20.814 82.2789 20.1933 82.5682 19.652C82.8576 19.1013 83.2589 18.672 83.7722 18.364C84.2949 18.0467 84.8922 17.888 85.5642 17.888C86.1149 17.888 86.5956 17.9953 87.0062 18.21C87.4262 18.4247 87.7529 18.728 87.9862 19.12V14.92H89.4702V25H88.1402L87.9862 23.922C87.7622 24.2487 87.4542 24.538 87.0622 24.79C86.6702 25.042 86.1662 25.168 85.5502 25.168ZM85.8162 23.88C86.4509 23.88 86.9689 23.6607 87.3702 23.222C87.7809 22.7833 87.9862 22.2187 87.9862 21.528C87.9862 20.828 87.7809 20.2633 87.3702 19.834C86.9689 19.3953 86.4509 19.176 85.8162 19.176C85.1816 19.176 84.6589 19.3953 84.2482 19.834C83.8376 20.2633 83.6322 20.828 83.6322 21.528C83.6322 21.9853 83.7256 22.3913 83.9122 22.746C84.0989 23.1007 84.3556 23.3807 84.6822 23.586C85.0182 23.782 85.3962 23.88 85.8162 23.88ZM97.7807 25C97.0993 25 96.558 24.8367 96.1567 24.51C95.7553 24.174 95.5547 23.5813 95.5547 22.732V19.302H94.3647V18.056H95.5547L95.7367 16.292H97.0387V18.056H98.9987V19.302H97.0387V22.732C97.0387 23.1147 97.118 23.3807 97.2767 23.53C97.4447 23.67 97.7293 23.74 98.1307 23.74H98.9287V25H97.7807ZM100.529 25V14.92H102.013V19.176C102.246 18.7747 102.568 18.462 102.979 18.238C103.399 18.0047 103.861 17.888 104.365 17.888C105.195 17.888 105.849 18.1493 106.325 18.672C106.801 19.1947 107.039 19.974 107.039 21.01V25H105.569V21.164C105.569 19.82 105.032 19.148 103.959 19.148C103.399 19.148 102.932 19.344 102.559 19.736C102.195 20.128 102.013 20.688 102.013 21.416V25H100.529ZM112.035 25.168C111.353 25.168 110.747 25.0187 110.215 24.72C109.692 24.412 109.281 23.9873 108.983 23.446C108.684 22.9047 108.535 22.2747 108.535 21.556C108.535 20.828 108.679 20.1887 108.969 19.638C109.267 19.0873 109.678 18.658 110.201 18.35C110.733 18.042 111.349 17.888 112.049 17.888C112.73 17.888 113.323 18.042 113.827 18.35C114.331 18.6487 114.723 19.05 115.003 19.554C115.283 20.058 115.423 20.6133 115.423 21.22C115.423 21.3133 115.418 21.416 115.409 21.528C115.409 21.6307 115.404 21.7473 115.395 21.878H109.991C110.037 22.55 110.257 23.0633 110.649 23.418C111.05 23.7633 111.512 23.936 112.035 23.936C112.455 23.936 112.805 23.8427 113.085 23.656C113.374 23.46 113.589 23.1987 113.729 22.872H115.213C115.026 23.5253 114.653 24.0713 114.093 24.51C113.542 24.9487 112.856 25.168 112.035 25.168ZM112.035 19.106C111.54 19.106 111.101 19.2553 110.719 19.554C110.336 19.8433 110.103 20.282 110.019 20.87H113.939C113.911 20.3287 113.719 19.8993 113.365 19.582C113.01 19.2647 112.567 19.106 112.035 19.106ZM119.916 25L123.528 15.2H125.152L128.736 25H127.168L126.328 22.606H122.324L121.484 25H119.916ZM122.744 21.43H125.908L124.326 16.964L122.744 21.43ZM130.046 28.08V18.056H131.376L131.53 19.134C131.754 18.8073 132.062 18.518 132.454 18.266C132.846 18.014 133.35 17.888 133.966 17.888C134.638 17.888 135.231 18.0467 135.744 18.364C136.258 18.6813 136.659 19.1153 136.948 19.666C137.247 20.2167 137.396 20.842 137.396 21.542C137.396 22.242 137.247 22.8673 136.948 23.418C136.659 23.9593 136.258 24.3887 135.744 24.706C135.231 25.014 134.634 25.168 133.952 25.168C133.411 25.168 132.93 25.0607 132.51 24.846C132.1 24.6313 131.773 24.328 131.53 23.936V28.08H130.046ZM133.7 23.88C134.335 23.88 134.858 23.6653 135.268 23.236C135.679 22.7973 135.884 22.228 135.884 21.528C135.884 21.0707 135.791 20.6647 135.604 20.31C135.418 19.9553 135.161 19.68 134.834 19.484C134.508 19.2787 134.13 19.176 133.7 19.176C133.066 19.176 132.543 19.3953 132.132 19.834C131.731 20.2727 131.53 20.8373 131.53 21.528C131.53 22.228 131.731 22.7973 132.132 23.236C132.543 23.6653 133.066 23.88 133.7 23.88ZM139.001 28.08V18.056H140.331L140.485 19.134C140.709 18.8073 141.017 18.518 141.409 18.266C141.801 18.014 142.305 17.888 142.921 17.888C143.593 17.888 144.186 18.0467 144.699 18.364C145.213 18.6813 145.614 19.1153 145.903 19.666C146.202 20.2167 146.351 20.842 146.351 21.542C146.351 22.242 146.202 22.8673 145.903 23.418C145.614 23.9593 145.213 24.3887 144.699 24.706C144.186 25.014 143.589 25.168 142.907 25.168C142.366 25.168 141.885 25.0607 141.465 24.846C141.055 24.6313 140.728 24.328 140.485 23.936V28.08H139.001ZM142.655 23.88C143.29 23.88 143.813 23.6653 144.223 23.236C144.634 22.7973 144.839 22.228 144.839 21.528C144.839 21.0707 144.746 20.6647 144.559 20.31C144.373 19.9553 144.116 19.68 143.789 19.484C143.463 19.2787 143.085 19.176 142.655 19.176C142.021 19.176 141.498 19.3953 141.087 19.834C140.686 20.2727 140.485 20.8373 140.485 21.528C140.485 22.228 140.686 22.7973 141.087 23.236C141.498 23.6653 142.021 23.88 142.655 23.88Z" fill="#282828"/>
<path d="M170.229 11C170.27 11 170.312 11 170.357 11C170.459 12.2694 169.975 13.2179 169.386 13.9048C168.808 14.5869 168.017 15.2485 166.737 15.1481C166.652 13.8969 167.137 13.0187 167.725 12.3334C168.271 11.6948 169.271 11.1265 170.229 11Z" fill="#282828"/>
<path d="M174.102 24.2123C174.102 24.2249 174.102 24.236 174.102 24.2479C173.743 25.337 173.23 26.2705 172.604 27.1368C172.032 27.9233 171.332 28.9816 170.082 28.9816C169.001 28.9816 168.283 28.2868 167.176 28.2679C166.005 28.2489 165.361 28.8488 164.29 28.9998C164.167 28.9998 164.045 28.9998 163.924 28.9998C163.138 28.886 162.503 28.2631 162.041 27.7019C160.677 26.0437 159.624 23.9017 159.428 21.1605C159.428 20.8918 159.428 20.6238 159.428 20.3551C159.511 18.3933 160.464 16.7982 161.731 16.0252C162.4 15.6142 163.319 15.2641 164.343 15.4206C164.781 15.4885 165.229 15.6387 165.622 15.7873C165.994 15.9304 166.46 16.1841 166.901 16.1707C167.2 16.162 167.497 16.0063 167.798 15.8964C168.68 15.5779 169.545 15.2127 170.685 15.3842C172.055 15.5913 173.027 16.1999 173.627 17.1389C172.469 17.8764 171.553 18.9877 171.709 20.8855C171.848 22.6093 172.85 23.6179 174.102 24.2123Z" fill="#282828"/>
<g clip-path="url(#clip0_813_28102)">
<path d="M187.062 11.6631C186.855 11.9447 186.739 12.2912 186.739 12.662V27.3381C186.739 27.6825 186.839 28.0061 187.02 28.2763L194.785 19.9471L187.062 11.6631Z" fill="#282828"/>
<path d="M195.496 19.1841L198.015 16.4821L189.16 11.2247C188.775 10.9964 188.334 10.9423 187.923 11.0613L195.496 19.1841Z" fill="#282828"/>
<path d="M195.496 20.7095L187.847 28.9143C188.012 28.9713 188.182 29 188.353 29C188.63 29 188.907 28.9251 189.16 28.7751L198.079 23.4798L195.496 20.7095Z" fill="#282828"/>
<path d="M201.52 18.5625L198.931 17.0254L196.207 19.9465L198.994 22.9362L201.52 21.4368C202.025 21.1369 202.327 20.5995 202.327 19.9997C202.327 19.3997 202.025 18.8624 201.52 18.5625Z" fill="#282828"/>
</g>
<defs>
<clipPath id="clip0_813_28102">
<rect width="17.4706" height="18" fill="white" transform="translate(185.765 11)"/>
</clipPath>
</defs>
</svg>
