<svg width="37" height="36" viewBox="0 0 37 36" fill="none" xmlns="http://www.w3.org/2000/svg">
<rect width="36.025" height="36" transform="translate(0.0146484)" fill="#43519C"/>
<path d="M29.6813 3H6.34798C4.51465 3 3.01465 4.5 3.01465 6.33333V29.6667C3.01465 31.5017 4.51465 33 6.34798 33H18.0146V21.3333H14.6813V17.2083H18.0146V13.7917C18.0146 10.185 20.0346 7.65167 24.2913 7.65167L27.2963 7.655V11.9967H25.3013C23.6446 11.9967 23.0146 13.24 23.0146 14.3933V17.21H27.2946L26.348 21.3333H23.0146V33H29.6813C31.5146 33 33.0146 31.5017 33.0146 29.6667V6.33333C33.0146 4.5 31.5146 3 29.6813 3Z" fill="white"/>
</svg>
