<svg width="147" height="41" viewBox="0 0 147 41" fill="none" xmlns="http://www.w3.org/2000/svg">
<circle cx="20.2158" cy="20.2158" r="20.2158" fill="url(#paint0_linear_3020_16646)"/>
<mask id="mask0_3020_16646" style="mask-type:alpha" maskUnits="userSpaceOnUse" x="-1" y="-1" width="42" height="42">
<circle cx="20.2159" cy="20.2159" r="20.4854" fill="url(#paint1_linear_3020_16646)"/>
</mask>
<g mask="url(#mask0_3020_16646)">
<path d="M10.5127 18.329L17.5209 25.3372V29.6499C17.5209 31.5851 15.952 33.1539 14.0168 33.1539C12.0815 33.1539 10.5127 31.5851 10.5127 29.6499V18.329Z" fill="white"/>
<path d="M11.6427 16.5978C10.2743 15.2293 10.2743 13.0107 11.6427 11.6422C13.0112 10.2738 15.2298 10.2738 16.5982 11.6422L38.0184 33.0624C39.3868 34.4308 39.3868 36.6495 38.0184 38.0179C36.65 39.3864 34.4313 39.3864 33.0629 38.0179L11.6427 16.5978Z" fill="white"/>
<path d="M29.6504 10.5122C31.5856 10.5122 33.1544 12.081 33.1544 14.0163C33.1544 15.9515 31.5856 17.5204 29.6504 17.5204L14.0168 17.5204C12.0815 17.5204 10.5127 15.9515 10.5127 14.0163C10.5127 12.081 12.0815 10.5122 14.0168 10.5122L29.6504 10.5122Z" fill="white"/>
</g>
<path d="M139.996 24.3479C138.628 24.3479 137.445 24.0573 136.447 23.4761C135.455 22.889 134.689 22.073 134.149 21.028C133.609 19.9771 133.339 18.7589 133.339 17.3734C133.339 15.9762 133.609 14.7551 134.149 13.7101C134.689 12.6592 135.455 11.8432 136.447 11.262C137.445 10.6749 138.628 10.3813 139.996 10.3813C141.364 10.3813 142.544 10.6749 143.536 11.262C144.534 11.8432 145.303 12.6592 145.844 13.7101C146.384 14.7551 146.654 15.9762 146.654 17.3734C146.654 18.7589 146.384 19.9771 145.844 21.028C145.303 22.073 144.534 22.889 143.536 23.4761C142.544 24.0573 141.364 24.3479 139.996 24.3479ZM140.014 21.4419C140.636 21.4419 141.156 21.2657 141.573 20.9135C141.989 20.5554 142.304 20.0681 142.515 19.4517C142.732 18.8352 142.841 18.1337 142.841 17.347C142.841 16.5603 142.732 15.8588 142.515 15.2423C142.304 14.6259 141.989 14.1386 141.573 13.7805C141.156 13.4224 140.636 13.2433 140.014 13.2433C139.386 13.2433 138.857 13.4224 138.429 13.7805C138.006 14.1386 137.686 14.6259 137.469 15.2423C137.258 15.8588 137.152 16.5603 137.152 17.347C137.152 18.1337 137.258 18.8352 137.469 19.4517C137.686 20.0681 138.006 20.5554 138.429 20.9135C138.857 21.2657 139.386 21.4419 140.014 21.4419Z" fill="#2B5582"/>
<path d="M124.367 24.0833V10.557H128.004V12.9171H128.145C128.392 12.0775 128.805 11.4435 129.387 11.0149C129.968 10.5805 130.637 10.3633 131.394 10.3633C131.582 10.3633 131.785 10.375 132.002 10.3985C132.219 10.422 132.41 10.4543 132.575 10.4954V13.8241C132.398 13.7713 132.155 13.7243 131.844 13.6832C131.532 13.6421 131.248 13.6216 130.989 13.6216C130.438 13.6216 129.944 13.7419 129.51 13.9826C129.081 14.2174 128.741 14.5462 128.488 14.9689C128.242 15.3916 128.119 15.8789 128.119 16.4307V24.0833H124.367Z" fill="#2B5582"/>
<path d="M117.532 11.878C117.408 11.4494 117.235 11.0708 117.012 10.742C116.789 10.4074 116.516 10.1256 116.193 9.89661C115.876 9.66178 115.512 9.48273 115.101 9.35944C114.696 9.23615 114.247 9.17451 113.754 9.17451C112.832 9.17451 112.022 9.40347 111.323 9.86139C110.631 10.3193 110.09 10.9856 109.703 11.8604C109.315 12.7293 109.122 13.7919 109.122 15.0482C109.122 16.3046 109.313 17.373 109.694 18.2536C110.076 19.1343 110.616 19.8065 111.314 20.2702C112.013 20.7282 112.838 20.9571 113.789 20.9571C114.652 20.9571 115.389 20.8045 115.999 20.4992C116.616 20.1881 117.085 19.7507 117.408 19.1871C117.737 18.6235 117.901 17.9572 117.901 17.1881L118.676 17.3026H114.027V14.4318H121.574V16.7038C121.574 18.2889 121.239 19.6509 120.57 20.7898C119.9 21.9229 118.979 22.7976 117.805 23.414C116.63 24.0246 115.286 24.3299 113.771 24.3299C112.081 24.3299 110.595 23.9571 109.315 23.2115C108.036 22.46 107.038 21.3945 106.321 20.0149C105.611 18.6294 105.256 16.9856 105.256 15.0834C105.256 13.6216 105.467 12.3183 105.89 11.1735C106.318 10.0228 106.917 9.04829 107.686 8.24987C108.455 7.45144 109.351 6.84382 110.372 6.42699C111.394 6.01017 112.5 5.80176 113.692 5.80176C114.714 5.80176 115.665 5.95146 116.545 6.25087C117.426 6.54441 118.207 6.96123 118.888 7.50134C119.575 8.04145 120.135 8.6843 120.57 9.42989C121.004 10.1696 121.283 10.9856 121.406 11.878H117.532Z" fill="#2B5582"/>
<path d="M98.7464 24.0834V10.5571H102.498V24.0834H98.7464ZM100.631 8.81351C100.073 8.81351 99.5947 8.62859 99.1955 8.25873C98.8021 7.883 98.6055 7.43389 98.6055 6.91139C98.6055 6.39476 98.8021 5.95152 99.1955 5.58166C99.5947 5.20593 100.073 5.01807 100.631 5.01807C101.189 5.01807 101.664 5.20593 102.057 5.58166C102.457 5.95152 102.656 6.39476 102.656 6.91139C102.656 7.43389 102.457 7.883 102.057 8.25873C101.664 8.62859 101.189 8.81351 100.631 8.81351Z" fill="#2B5582"/>
<path d="M87.6426 10.5571L90.1259 15.286L92.6709 10.5571H96.5191L92.6004 17.3202L96.6248 24.0834H92.7941L90.1259 19.4073L87.5017 24.0834H83.627L87.6426 17.3202L83.7679 10.5571H87.6426Z" fill="#2B5582"/>
<path d="M76.0921 24.3479C74.7007 24.3479 73.5031 24.0661 72.4992 23.5025C71.5012 22.933 70.7321 22.1287 70.192 21.0896C69.6519 20.0446 69.3818 18.8088 69.3818 17.3822C69.3818 15.9909 69.6519 14.7697 70.192 13.7189C70.7321 12.668 71.4924 11.849 72.4728 11.262C73.4591 10.6749 74.6156 10.3813 75.9424 10.3813C76.8348 10.3813 77.6655 10.5252 78.4345 10.8128C79.2095 11.0946 79.8846 11.5203 80.46 12.0897C81.0412 12.6592 81.4932 13.3754 81.8161 14.2384C82.139 15.0956 82.3004 16.0995 82.3004 17.2501V18.2805H70.8789V15.9556H78.7692C78.7692 15.4155 78.6518 14.9371 78.4169 14.5202C78.1821 14.1034 77.8563 13.7776 77.4395 13.5428C77.0285 13.3021 76.55 13.1817 76.0041 13.1817C75.4346 13.1817 74.9297 13.3138 74.4894 13.578C74.055 13.8363 73.7145 14.1856 73.4679 14.6259C73.2213 15.0603 73.0951 15.5447 73.0892 16.0789V18.2893C73.0892 18.9585 73.2125 19.5368 73.4591 20.0241C73.7115 20.5113 74.0667 20.8871 74.5246 21.1513C74.9825 21.4154 75.5256 21.5475 76.1538 21.5475C76.5706 21.5475 76.9522 21.4888 77.2986 21.3714C77.6449 21.254 77.9414 21.0779 78.188 20.843C78.4345 20.6082 78.6224 20.3205 78.7516 19.98L82.2212 20.209C82.0451 21.0427 81.684 21.7706 81.138 22.3929C80.5979 23.0094 79.8993 23.4908 79.0422 23.8371C78.1909 24.1776 77.2076 24.3479 76.0921 24.3479Z" fill="#2B5582"/>
<path d="M66.9233 6.04834V24.0833H63.1719V6.04834H66.9233Z" fill="#2B5582"/>
<path d="M48.7363 24.0833V6.04834H60.6775V9.19213H52.5494V13.4895H59.8849V16.6333H52.5494V24.0833H48.7363Z" fill="#2B5582"/>
<path d="M146.859 33.1179L145.469 33.2695C145.43 33.1291 145.361 32.9972 145.263 32.8736C145.168 32.7501 145.038 32.6504 144.876 32.5746C144.713 32.4988 144.513 32.4609 144.278 32.4609C143.96 32.4609 143.694 32.5297 143.477 32.6672C143.264 32.8048 143.159 32.9831 143.161 33.2021C143.159 33.3902 143.227 33.5433 143.368 33.6612C143.511 33.7791 143.747 33.876 144.075 33.9518L145.179 34.1876C145.791 34.3196 146.246 34.5288 146.543 34.8152C146.844 35.1016 146.995 35.4764 146.998 35.9397C146.995 36.3468 146.876 36.7062 146.64 37.0179C146.407 37.3267 146.083 37.5682 145.667 37.7423C145.252 37.9163 144.775 38.0034 144.235 38.0034C143.444 38.0034 142.806 37.8377 142.323 37.5064C141.84 37.1723 141.553 36.7076 141.46 36.1124L142.947 35.9692C143.014 36.2612 143.157 36.4816 143.376 36.6304C143.595 36.7792 143.88 36.8536 144.231 36.8536C144.593 36.8536 144.884 36.7792 145.103 36.6304C145.325 36.4816 145.436 36.2977 145.436 36.0787C145.436 35.8934 145.364 35.7403 145.221 35.6196C145.081 35.4989 144.862 35.4062 144.564 35.3416L143.46 35.11C142.84 34.9808 142.381 34.7632 142.083 34.4572C141.786 34.1483 141.638 33.7581 141.641 33.2864C141.638 32.8877 141.746 32.5423 141.965 32.2503C142.187 31.9555 142.495 31.728 142.888 31.568C143.284 31.4052 143.74 31.3237 144.256 31.3237C145.015 31.3237 145.611 31.4852 146.046 31.8081C146.484 32.131 146.755 32.5676 146.859 33.1179Z" fill="#2B5582"/>
<path d="M136.044 34.0866V37.877H134.52V31.408H135.977V32.5072H136.053C136.201 32.145 136.439 31.8572 136.764 31.6438C137.093 31.4304 137.499 31.3237 137.981 31.3237C138.428 31.3237 138.817 31.4192 139.148 31.6101C139.482 31.801 139.741 32.0776 139.923 32.4398C140.108 32.802 140.2 33.2414 140.197 33.7581V37.877H138.672V33.9939C138.672 33.5615 138.56 33.2232 138.335 32.9789C138.113 32.7346 137.806 32.6125 137.413 32.6125C137.146 32.6125 136.909 32.6715 136.701 32.7894C136.496 32.9045 136.335 33.0716 136.217 33.2906C136.102 33.5096 136.044 33.7749 136.044 34.0866Z" fill="#2B5582"/>
<path d="M129.572 38.0076C129.162 38.0076 128.793 37.9346 128.464 37.7886C128.139 37.6398 127.88 37.4208 127.689 37.1316C127.501 36.8424 127.407 36.4858 127.407 36.0618C127.407 35.6968 127.475 35.395 127.609 35.1563C127.744 34.9177 127.928 34.7267 128.161 34.5835C128.394 34.4403 128.657 34.3322 128.949 34.2592C129.243 34.1834 129.548 34.1287 129.863 34.095C130.242 34.0557 130.549 34.0206 130.785 33.9897C131.021 33.956 131.192 33.9055 131.299 33.8381C131.408 33.7679 131.463 33.6598 131.463 33.5138V33.4885C131.463 33.1712 131.369 32.9256 131.181 32.7515C130.993 32.5774 130.722 32.4904 130.368 32.4904C129.995 32.4904 129.698 32.5718 129.479 32.7346C129.263 32.8975 129.117 33.0898 129.041 33.3116L127.618 33.1095C127.73 32.7164 127.915 32.3879 128.174 32.1239C128.432 31.8572 128.748 31.6579 129.121 31.5259C129.495 31.3911 129.908 31.3237 130.36 31.3237C130.671 31.3237 130.981 31.3602 131.29 31.4332C131.599 31.5062 131.881 31.627 132.137 31.7954C132.392 31.9611 132.597 32.1871 132.752 32.4735C132.909 32.7599 132.988 33.1179 132.988 33.5475V37.877H131.522V36.9884H131.471C131.379 37.1681 131.248 37.3365 131.08 37.4938C130.914 37.6482 130.705 37.7731 130.452 37.8686C130.202 37.9613 129.909 38.0076 129.572 38.0076ZM129.968 36.8873C130.274 36.8873 130.539 36.8269 130.764 36.7062C130.989 36.5827 131.161 36.4198 131.282 36.2176C131.405 36.0155 131.467 35.7951 131.467 35.5564V34.7941C131.42 34.8334 131.338 34.8699 131.223 34.9036C131.111 34.9373 130.984 34.9668 130.844 34.9921C130.704 35.0173 130.565 35.0398 130.427 35.0594C130.289 35.0791 130.17 35.0959 130.069 35.11C129.842 35.1409 129.638 35.1914 129.458 35.2616C129.279 35.3318 129.137 35.4301 129.033 35.5564C128.929 35.68 128.877 35.84 128.877 36.0365C128.877 36.3173 128.98 36.5293 129.185 36.6725C129.39 36.8157 129.651 36.8873 129.968 36.8873Z" fill="#2B5582"/>
<path d="M123.316 38.0034C122.684 38.0034 122.136 37.8644 121.673 37.5864C121.21 37.3085 120.85 36.9196 120.595 36.4198C120.342 35.92 120.216 35.336 120.216 34.6678C120.216 33.9995 120.342 33.4141 120.595 32.9115C120.85 32.4089 121.21 32.0186 121.673 31.7407C122.136 31.4627 122.684 31.3237 123.316 31.3237C123.947 31.3237 124.495 31.4627 124.958 31.7407C125.421 32.0186 125.779 32.4089 126.032 32.9115C126.288 33.4141 126.415 33.9995 126.415 34.6678C126.415 35.336 126.288 35.92 126.032 36.4198C125.779 36.9196 125.421 37.3085 124.958 37.5864C124.495 37.8644 123.947 38.0034 123.316 38.0034ZM123.324 36.782C123.667 36.782 123.953 36.6879 124.183 36.4998C124.413 36.3089 124.585 36.0534 124.697 35.7333C124.812 35.4132 124.87 35.0566 124.87 34.6636C124.87 34.2677 124.812 33.9097 124.697 33.5896C124.585 33.2667 124.413 33.0098 124.183 32.8189C123.953 32.6279 123.667 32.5325 123.324 32.5325C122.973 32.5325 122.681 32.6279 122.448 32.8189C122.218 33.0098 122.045 33.2667 121.93 33.5896C121.818 33.9097 121.761 34.2677 121.761 34.6636C121.761 35.0566 121.818 35.4132 121.93 35.7333C122.045 36.0534 122.218 36.3089 122.448 36.4998C122.681 36.6879 122.973 36.782 123.324 36.782Z" fill="#2B5582"/>
<path d="M113.845 37.8769V29.2515H115.407V36.5671H119.206V37.8769H113.845Z" fill="#2B5582"/>
<path d="M110.684 37.8768V31.4078H112.209V37.8768H110.684ZM111.451 30.4896C111.209 30.4896 111.002 30.4096 110.828 30.2496C110.653 30.0867 110.566 29.8916 110.566 29.6642C110.566 29.4339 110.653 29.2388 110.828 29.0787C111.002 28.9159 111.209 28.8345 111.451 28.8345C111.695 28.8345 111.903 28.9159 112.074 29.0787C112.248 29.2388 112.335 29.4339 112.335 29.6642C112.335 29.8916 112.248 30.0867 112.074 30.2496C111.903 30.4096 111.695 30.4896 111.451 30.4896Z" fill="#2B5582"/>
<path d="M105.26 31.4077L106.565 33.7957L107.892 31.4077H109.505L107.555 34.6422L109.539 37.8768H107.934L106.565 35.5478L105.209 37.8768H103.592L105.563 34.6422L103.642 31.4077H105.26Z" fill="#2B5582"/>
<path d="M99.9856 38.0034C99.337 38.0034 98.7769 37.8686 98.3052 37.5991C97.8363 37.3267 97.4755 36.942 97.2228 36.4451C96.9701 35.9453 96.8438 35.3571 96.8438 34.6804C96.8438 34.015 96.9701 33.431 97.2228 32.9284C97.4783 32.423 97.8349 32.0299 98.2926 31.7491C98.7502 31.4655 99.2879 31.3237 99.9056 31.3237C100.304 31.3237 100.681 31.3883 101.034 31.5175C101.391 31.6438 101.705 31.8404 101.978 32.1071C102.253 32.3738 102.469 32.7136 102.626 33.1263C102.784 33.5362 102.862 34.0248 102.862 34.592V35.0594H97.5597V34.0318H101.401C101.398 33.7398 101.335 33.4801 101.211 33.2527C101.088 33.0224 100.915 32.8413 100.693 32.7094C100.474 32.5774 100.219 32.5114 99.9267 32.5114C99.615 32.5114 99.3412 32.5872 99.1054 32.7388C98.8695 32.8877 98.6856 33.0842 98.5537 33.3285C98.4245 33.5699 98.3585 33.8353 98.3557 34.1245V35.0215C98.3557 35.3978 98.4245 35.7207 98.5621 35.9902C98.6997 36.257 98.892 36.4619 99.1391 36.6051C99.3862 36.7455 99.6754 36.8157 100.007 36.8157C100.229 36.8157 100.429 36.7848 100.609 36.723C100.789 36.6585 100.944 36.5644 101.076 36.4409C101.208 36.3173 101.308 36.1643 101.375 35.9818L102.799 36.1418C102.709 36.5181 102.538 36.8466 102.285 37.1274C102.035 37.4053 101.715 37.6215 101.325 37.776C100.935 37.9276 100.488 38.0034 99.9856 38.0034Z" fill="#2B5582"/>
<path d="M95.5539 29.2515V37.8769H94.0293V29.2515H95.5539Z" fill="#2B5582"/>
<path d="M87.1475 37.8769V29.2515H92.6731V30.5613H88.71V32.903H92.2941V34.2128H88.71V37.8769H87.1475Z" fill="#2B5582"/>
<path d="M78.2525 40.3027C78.0447 40.3027 77.8523 40.2858 77.6755 40.2521C77.5014 40.2213 77.3624 40.1848 77.2585 40.1426L77.6123 38.955C77.8341 39.0195 78.032 39.0504 78.2061 39.0476C78.3802 39.0448 78.5332 38.9901 78.6652 38.8834C78.8 38.7795 78.9137 38.6054 79.0063 38.3611L79.1369 38.0116L76.791 31.4077H78.4083L79.8992 36.2932H79.9666L81.4617 31.4077H83.0832L80.493 38.6601C80.3723 39.0027 80.2123 39.2961 80.0129 39.5404C79.8136 39.7875 79.5693 39.9756 79.2801 40.1047C78.9937 40.2367 78.6512 40.3027 78.2525 40.3027Z" fill="#2B5582"/>
<path d="M70.1221 37.8769V29.2515H71.6467V32.4776H71.7099C71.7885 32.3203 71.8994 32.1533 72.0426 31.9764C72.1858 31.7967 72.3795 31.6437 72.6238 31.5173C72.8681 31.3882 73.1797 31.3236 73.5588 31.3236C74.0585 31.3236 74.5092 31.4513 74.9107 31.7068C75.315 31.9595 75.6351 32.3344 75.8709 32.8314C76.1096 33.3255 76.2289 33.932 76.2289 34.6508C76.2289 35.3611 76.1124 35.9648 75.8794 36.4618C75.6463 36.9588 75.3291 37.3378 74.9275 37.5989C74.526 37.86 74.0712 37.9906 73.563 37.9906C73.1924 37.9906 72.8849 37.9288 72.6406 37.8053C72.3964 37.6818 72.1998 37.5329 72.051 37.3589C71.905 37.182 71.7913 37.0149 71.7099 36.8577H71.6214V37.8769H70.1221ZM71.6172 34.6424C71.6172 35.0607 71.6762 35.4271 71.7941 35.7416C71.9148 36.0561 72.0875 36.3017 72.3121 36.4786C72.5395 36.6527 72.8147 36.7397 73.1376 36.7397C73.4745 36.7397 73.7567 36.6499 73.9841 36.4702C74.2116 36.2877 74.3828 36.0392 74.498 35.7247C74.6159 35.4075 74.6748 35.0467 74.6748 34.6424C74.6748 34.2408 74.6173 33.8843 74.5022 33.5726C74.3871 33.2609 74.2158 33.0167 73.9883 32.8398C73.7609 32.6629 73.4773 32.5744 73.1376 32.5744C72.8119 32.5744 72.5353 32.6601 72.3079 32.8314C72.0805 33.0026 71.9078 33.2427 71.7899 33.5515C71.6748 33.8604 71.6172 34.224 71.6172 34.6424Z" fill="#2B5582"/>
<defs>
<linearGradient id="paint0_linear_3020_16646" x1="30.1298" y1="2.32762" x2="9.61222" y2="38.5782" gradientUnits="userSpaceOnUse">
<stop stop-color="#2B5582"/>
<stop offset="1" stop-color="#5D2348"/>
</linearGradient>
<linearGradient id="paint1_linear_3020_16646" x1="20.2159" y1="-0.269531" x2="20.2159" y2="40.7012" gradientUnits="userSpaceOnUse">
<stop stop-color="#2B5683"/>
<stop offset="1" stop-color="#9D3D55"/>
</linearGradient>
</defs>
</svg>
