<svg width="37" height="36" viewBox="0 0 37 36" fill="none" xmlns="http://www.w3.org/2000/svg">
<rect width="36.025" height="36" transform="translate(0.0400391)" fill="#43519C"/>
<path fill-rule="evenodd" clip-rule="evenodd" d="M6.25432 3H29.8258C31.6003 3 33.04 4.43973 33.04 6.21429V29.7857C33.04 31.5603 31.6003 33 29.8258 33H6.25432C4.47977 33 3.04004 31.5603 3.04004 29.7857V6.21429C3.04004 4.43973 4.47977 3 6.25432 3ZM29.04 8.5C29.04 9.32843 28.3685 10 27.54 10C26.7116 10 26.04 9.32843 26.04 8.5C26.04 7.67157 26.7116 7 27.54 7C28.3685 7 29.04 7.67157 29.04 8.5ZM18.04 27C23.0106 27 27.04 22.9706 27.04 18C27.04 13.0294 23.0106 9 18.04 9C13.0695 9 9.04004 13.0294 9.04004 18C9.04004 22.9706 13.0695 27 18.04 27ZM18.04 24C21.3537 24 24.04 21.3137 24.04 18C24.04 14.6863 21.3537 12 18.04 12C14.7263 12 12.04 14.6863 12.04 18C12.04 21.3137 14.7263 24 18.04 24Z" fill="white"/>
</svg>
