<svg width="37" height="36" viewBox="0 0 37 36" fill="none" xmlns="http://www.w3.org/2000/svg">
<rect width="36.025" height="36" transform="translate(0.964844)" fill="#43519C"/>
<path fill-rule="evenodd" clip-rule="evenodd" d="M3.96484 5.50637C3.96484 4.84164 4.22891 4.20413 4.69894 3.7341C5.16898 3.26407 5.80648 3 6.47121 3H31.4557C31.7852 2.99947 32.1115 3.06391 32.4159 3.18964C32.7204 3.31537 32.9971 3.49993 33.2302 3.73273C33.4632 3.96554 33.6481 4.24204 33.7742 4.54638C33.9002 4.85073 33.965 5.17695 33.9648 5.50637V30.4909C33.9652 30.8204 33.9006 31.1467 33.7747 31.4512C33.6488 31.7557 33.4641 32.0324 33.2312 32.2654C32.9983 32.4985 32.7217 32.6833 32.4173 32.8093C32.1129 32.9354 31.7866 33.0002 31.4571 33H6.47121C6.14195 33 5.81592 32.9351 5.51175 32.8091C5.20757 32.683 4.93121 32.4983 4.69846 32.2654C4.4657 32.0325 4.28111 31.7561 4.15524 31.4518C4.02936 31.1476 3.96466 30.8215 3.96484 30.4923V5.50637ZM15.8394 14.4382H19.9017V16.4782C20.488 15.3055 21.988 14.25 24.2421 14.25C28.5635 14.25 29.5876 16.5859 29.5876 20.8718V28.8109H25.2144V21.8482C25.2144 19.4073 24.628 18.03 23.1389 18.03C21.073 18.03 20.2139 19.515 20.2139 21.8482V28.8109H15.8394V14.4382ZM8.33939 28.6241H12.7139V14.25H8.33939V28.6227V28.6241ZM13.3398 9.56182C13.3481 9.93637 13.2814 10.3088 13.1438 10.6572C13.0062 11.0057 12.8003 11.3231 12.5383 11.591C12.2764 11.8588 11.9635 12.0716 11.6182 12.2168C11.2729 12.3621 10.902 12.4369 10.5273 12.4369C10.1527 12.4369 9.78183 12.3621 9.4365 12.2168C9.09116 12.0716 8.77833 11.8588 8.51635 11.591C8.25436 11.3231 8.04852 11.0057 7.91088 10.6572C7.77325 10.3088 7.7066 9.93637 7.71484 9.56182C7.73103 8.82662 8.03446 8.12699 8.56014 7.61276C9.08582 7.09852 9.79197 6.81057 10.5273 6.81057C11.2627 6.81057 11.9689 7.09852 12.4945 7.61276C13.0202 8.12699 13.3237 8.82662 13.3398 9.56182Z" fill="white"/>
</svg>
