
<svg width="19" height="18" viewBox="0 0 19 18" fill="none" xmlns="http://www.w3.org/2000/svg">
<g clip-path="url(#clip0_1115_105)">
<path d="M2.06192 0.662842C1.85465 0.944504 1.73926 1.29099 1.73926 1.66177V16.3379C1.73926 16.6823 1.83915 17.0058 2.01958 17.2761L9.7853 8.94681L2.06192 0.662842Z" fill="#282828"/>
<path d="M10.496 8.18414L13.0153 5.48205L4.15967 0.224681C3.77531 -0.00355981 3.33432 -0.0576675 2.92285 0.0612596L10.496 8.18414Z" fill="#282828"/>
<path d="M10.4963 9.70947L2.84668 17.9143C3.01161 17.9713 3.18229 18 3.3531 18C3.63022 18 3.90747 17.9251 4.16002 17.7751L13.0793 12.4798L10.4963 9.70947Z" fill="#282828"/>
<path d="M16.5197 7.56276L13.9307 6.02563L11.207 8.94676L13.9942 11.9364L16.5197 10.4371C17.025 10.1371 17.3267 9.59976 17.3267 8.99991C17.3267 8.39992 17.025 7.86269 16.5197 7.56276Z" fill="#282828"/>
</g>
<defs>
<clipPath id="clip0_1115_105">
<rect width="17.4706" height="18" fill="white" transform="translate(0.764648)"/>
</clipPath>
</defs>
</svg>
