<svg width="61" height="78" viewBox="0 0 61 78" fill="none" xmlns="http://www.w3.org/2000/svg">
<path d="M25.6912 50.8677L47.0979 29.4611L44.0172 26.3804L25.6912 44.7064L16.4577 35.4728L13.377 38.5535L25.6912 50.8677ZM30.225 77.2233C21.5505 74.6492 14.3444 69.3944 8.60668 61.4589C2.86889 53.5234 0 44.5846 0 34.6425V11.2928L30.225 0L60.45 11.2928V34.6425C60.45 44.5846 57.5811 53.5234 51.8433 61.4589C46.1056 69.3944 38.8995 74.6492 30.225 77.2233ZM30.225 72.6396C37.7093 70.2648 43.8982 65.5152 48.7918 58.3907C53.6854 51.2662 56.1321 43.3502 56.1321 34.6425V14.2406L30.225 4.60844L4.31786 14.2406V34.6425C4.31786 43.3502 6.76464 51.2662 11.6582 58.3907C16.5518 65.5152 22.7407 70.2648 30.225 72.6396Z" fill="#D46F88"/>
</svg>
