<svg width="61" height="78" viewBox="0 0 61 78" fill="none" xmlns="http://www.w3.org/2000/svg">
<path d="M30.225 77.2232C21.5505 74.6491 14.3444 69.3944 8.60668 61.4589C2.86889 53.5234 0 44.5846 0 34.6425V11.2928L30.225 0L60.45 11.2928V34.6425C60.45 44.5846 57.5811 53.5234 51.8433 61.4589C46.1056 69.3944 38.8995 74.6491 30.225 77.2232ZM30.225 72.6396C37.7093 70.2648 43.8982 65.5152 48.7918 58.3907C53.6854 51.2662 56.1321 43.3502 56.1321 34.6425V14.2406L30.225 4.60844L4.31786 14.2406V34.6425C4.31786 43.3502 6.76464 51.2662 11.6582 58.3907C16.5518 65.5152 22.7407 70.2648 30.225 72.6396Z" fill="#D46F88"/>
<path d="M18.3191 48.9176L18.3191 48.9176C18.9764 49.575 19.7855 49.9086 20.7178 49.9086H39.9821C40.9143 49.9086 41.7234 49.575 42.3807 48.9176L42.3808 48.9176C43.0381 48.2603 43.3717 47.4512 43.3717 46.519V30.8323C43.3717 29.9001 43.0381 29.091 42.3808 28.4336L42.3807 28.4336C41.7234 27.7763 40.9143 27.4427 39.9821 27.4427H38.0052V24.365C38.0052 22.2417 37.2598 20.4231 35.7758 18.9391C34.2919 17.4552 32.4732 16.7097 30.3499 16.7097C28.2266 16.7097 26.408 17.4552 24.924 18.9391C23.4401 20.4231 22.6946 22.2417 22.6946 24.365V27.4427H20.7178C19.7855 27.4427 18.9764 27.7763 18.3191 28.4336L18.3191 28.4336C17.6618 29.091 17.3281 29.9001 17.3281 30.8323V46.519C17.3281 47.4512 17.6618 48.2603 18.3191 48.9176ZM40.4197 46.9566C40.3169 47.0594 40.1851 47.1198 39.9821 47.1198H20.7178C20.5147 47.1198 20.3829 47.0594 20.2801 46.9566C20.1773 46.8538 20.117 46.722 20.117 46.519V30.8323C20.117 30.6293 20.1773 30.4975 20.2801 30.3947C20.3829 30.2918 20.5147 30.2315 20.7178 30.2315H39.9821C40.1851 30.2315 40.3169 30.2918 40.4197 30.3947C40.5225 30.4975 40.5829 30.6293 40.5829 30.8323V46.519C40.5829 46.722 40.5225 46.8538 40.4197 46.9566ZM30.3499 41.8589C31.2324 41.8589 31.9968 41.5509 32.611 40.9367C33.2252 40.3225 33.5332 39.5581 33.5332 38.6756C33.5332 37.7932 33.2252 37.0287 32.611 36.4146C31.9968 35.8004 31.2324 35.4924 30.3499 35.4924C29.4675 35.4924 28.703 35.8004 28.0888 36.4146C27.4747 37.0287 27.1667 37.7932 27.1667 38.6756C27.1667 39.5581 27.4747 40.3225 28.0888 40.9367C28.703 41.5509 29.4675 41.8589 30.3499 41.8589ZM35.2164 27.4427H25.4834V24.365C25.4834 23.0054 25.9536 21.866 26.9022 20.9173C27.8509 19.9687 28.9903 19.4985 30.3499 19.4985C31.7095 19.4985 32.849 19.9687 33.7976 20.9173C34.7463 21.866 35.2164 23.0054 35.2164 24.365V27.4427Z" fill="#D46F88" stroke="#D46F88"/>
</svg>
