<svg width="61" height="78" viewBox="0 0 61 78" fill="none" xmlns="http://www.w3.org/2000/svg">
<path d="M6.92996 77.22C5.01047 77.22 3.37559 76.5449 2.02531 75.1947C0.675103 73.8444 0 72.2095 0 70.29V32.67C0 30.7505 0.675103 29.1156 2.02531 27.7653C3.37559 26.4151 5.01047 25.74 6.92996 25.74H12.87V17.16C12.87 12.3805 14.5351 8.32564 17.8654 4.99539C21.1956 1.66513 25.2505 0 30.03 0C34.8095 0 38.8644 1.66513 42.1946 4.99539C45.5249 8.32564 47.19 12.3805 47.19 17.16V25.74H53.13C55.0495 25.74 56.6844 26.4151 58.0347 27.7653C59.3849 29.1156 60.06 30.7505 60.06 32.67V70.29C60.06 72.2095 59.3849 73.8444 58.0347 75.1947C56.6844 76.5449 55.0495 77.22 53.13 77.22H6.92996ZM6.92996 72.93H53.13C53.9 72.93 54.5325 72.6825 55.0275 72.1875C55.5225 71.6925 55.77 71.06 55.77 70.29V32.67C55.77 31.9 55.5225 31.2675 55.0275 30.7725C54.5325 30.2775 53.9 30.03 53.13 30.03H6.92996C6.15997 30.03 5.52749 30.2775 5.03249 30.7725C4.5375 31.2675 4.29 31.9 4.29 32.67V70.29C4.29 71.06 4.5375 71.6925 5.03249 72.1875C5.52749 72.6825 6.15997 72.93 6.92996 72.93ZM30.03 57.915C31.8395 57.915 33.3644 57.2949 34.6046 56.0546C35.8449 54.8144 36.465 53.2895 36.465 51.48C36.465 49.6705 35.8449 48.1456 34.6046 46.9054C33.3644 45.6651 31.8395 45.045 30.03 45.045C28.2205 45.045 26.6956 45.6651 25.4554 46.9054C24.2151 48.1456 23.595 49.6705 23.595 51.48C23.595 53.2895 24.2151 54.8144 25.4554 56.0546C26.6956 57.2949 28.2205 57.915 30.03 57.915ZM17.16 25.74H42.9V17.16C42.9 13.585 41.6488 10.5463 39.1462 8.04375C36.6437 5.54125 33.605 4.29 30.03 4.29C26.455 4.29 23.4163 5.54125 20.9137 8.04375C18.4112 10.5463 17.16 13.585 17.16 17.16V25.74Z" fill="#D46F88"/>
</svg>
