<svg width="37" height="36" viewBox="0 0 37 36" fill="none" xmlns="http://www.w3.org/2000/svg">
<rect width="36.025" height="36" transform="translate(-0.00976562)" fill="#43519C"/>
<rect x="3" y="3" width="30" height="30" rx="3" fill="white"/>
<path d="M26.563 26.1445L19.8621 16.4096L19.1043 15.3086L14.3107 8.34461L13.9137 7.7677H8.02344L9.46011 9.85546L15.8333 19.1159L16.5912 20.2158L21.7124 27.6564L22.1094 28.2328H27.9997L26.563 26.145V26.1445ZM22.8096 26.8997L17.4894 19.1698L16.7315 18.0694L10.5579 9.09977H13.2135L18.2061 16.3536L18.9639 17.454L25.4652 26.8997H22.8096Z" fill="#43519C"/>
<path d="M16.732 18.0694L17.4898 19.1698L16.5917 20.2153L9.70022 28.2323H8.00098L15.8338 19.1154L16.732 18.0694Z" fill="#43519C"/>
<path d="M27.2904 7.7677L19.8621 16.4096L18.9639 17.4546L18.2061 16.3541L19.1042 15.3086L24.1363 9.452L25.5911 7.7677H27.2904Z" fill="#43519C"/>
</svg>
